<svg xmlns="http://www.w3.org/2000/svg" width="32" height="32" viewBox="0 0 32 32" fill="none">
  <!-- Sol de Mayo (símbolo nacional argentino, Bandera de Manuel Belgrano).
       Versión escalada a 32x32 para favicon — diseño idéntico al InfoTooltip
       de PASE pero sin cara (no se ve a tamaño favicon). Pase 2026-05-17. -->

  <!-- 8 rayos largos (rectos: N, S, E, O, NE, SE, SW, NW) -->
  <g stroke="#F5C518" stroke-width="2.2" stroke-linecap="round">
    <line x1="16" y1="1" x2="16" y2="6"/>
    <line x1="16" y1="26" x2="16" y2="31"/>
    <line x1="1" y1="16" x2="6" y2="16"/>
    <line x1="26" y1="16" x2="31" y2="16"/>
    <line x1="5.4" y1="5.4" x2="8.5" y2="8.5"/>
    <line x1="23.5" y1="23.5" x2="26.6" y2="26.6"/>
    <line x1="5.4" y1="26.6" x2="8.5" y2="23.5"/>
    <line x1="23.5" y1="8.5" x2="26.6" y2="5.4"/>
  </g>

  <!-- 8 rayos cortos (intercalados a 22.5° entre cada par de largos) -->
  <g stroke="#F5C518" stroke-width="1.5" stroke-linecap="round">
    <line x1="9.5" y1="2.4" x2="10.7" y2="5.2"/>
    <line x1="22.5" y1="2.4" x2="21.3" y2="5.2"/>
    <line x1="2.4" y1="9.5" x2="5.2" y2="10.7"/>
    <line x1="2.4" y1="22.5" x2="5.2" y2="21.3"/>
    <line x1="26.8" y1="10.7" x2="29.6" y2="9.5"/>
    <line x1="26.8" y1="21.3" x2="29.6" y2="22.5"/>
    <line x1="10.7" y1="26.8" x2="9.5" y2="29.6"/>
    <line x1="21.3" y1="26.8" x2="22.5" y2="29.6"/>
  </g>

  <!-- Cara central (círculo dorado lleno) -->
  <circle cx="16" cy="16" r="7" fill="#F5C518"/>

  <!-- Detalles de la cara (sutiles, solo se ven en tamaños grandes — apple-touch-icon, etc.) -->
  <circle cx="13.7" cy="14.7" r="0.7" fill="#1A3A5E"/>
  <circle cx="18.3" cy="14.7" r="0.7" fill="#1A3A5E"/>
  <path d="M 13.6 17.5 Q 16 19.2 18.4 17.5" stroke="#1A3A5E" stroke-width="0.7" stroke-linecap="round" fill="none"/>
</svg>
